<?xml version="1.0" encoding="UTF-8"?>
<svg id="Layer_1" data-name="Layer 1" xmlns="http://www.w3.org/2000/svg" viewBox="0 0 155 43.86">
  <defs>
    <style>
      .cls-1 {
        letter-spacing: 0em;
      }

      .cls-2 {
        fill: #fff;
      }

      .cls-3 {
        letter-spacing: 0em;
      }

      .cls-4 {
        font-family: MyriadPro-Regular, 'Myriad Pro';
        font-size: 40.35px;
      }
    </style>
  </defs>
  <g>
    <rect class="cls-2" x="22.34" y="1.05" width="110.32" height="40.68"/>
    <path d="M131.66,2.05v38.68H23.34V2.05h108.32M133.66.05H21.34v42.68h112.32V.05h0Z"/>
  </g>
  <g>
    <rect class="cls-2" x="133.54" y="8.92" width="20.46" height="24.96"/>
    <path d="M153,9.92v22.96h-18.46V9.92h18.46M155,7.92h-22.46v26.96h22.46V7.92h0Z"/>
  </g>
  <rect x="141.52" y="14.65" width="5.62" height="3.8"/>
  <rect x="141.52" y="24.33" width="5.62" height="3.8"/>
  <text class="cls-4" transform="translate(37.62 33.77)"><tspan x="0" y="0">TI</tspan><tspan class="cls-1" x="29.7" y="0">N</tspan><tspan class="cls-3" x="55.96" y="0">Y</tspan></text>
  <path d="M5.62,21.39c0,8.68,7.04,15.72,15.72,15.72v5.62C9.56,42.73,0,33.18,0,21.39S9.56.05,21.34.05v5.62c-8.68,0-15.72,7.04-15.72,15.72Z"/>
</svg>